# xmcd CD database file
#
# Track frame offsets:
#	150
#	15380
#	31185
#	45777
#
# Disc length: 813 seconds
#
# Revision: 9
# Processed by: cddbd v1.5.2PL0 Copyright (c) Steve Scherf et al.
# Submitted via: CDex 1.51
#
DISCID=1a032b04
DTITLE=Emilia - Big Big World - The Mixes
DYEAR=1998
DGENRE=Dance
TTITLE0=Big Big World [Big Big World Album Version]
TTITLE1=Big Big World [Pierre J's Big Radio Remix]
TTITLE2=Big Big World [TNT's Big Phat Radio Edit]
TTITLE3=Big Big World [Karaoke Version]
EXTD=by GiggioBiggio YEAR: 1998
EXTT0=
EXTT1=
EXTT2=
EXTT3=
PLAYORDER=
